<svg id="Layer_1" data-name="Layer 1" xmlns="http://www.w3.org/2000/svg" viewBox="0 0 479.74 70.31"><defs><style>.cls-1{fill:#d79491;}</style></defs><path class="cls-1" d="M3,30.87V21.14h11.9v9.73ZM28.36,80.52q-7.48,0-10.79-4.3T14.26,62.47V21.14h10.1V62.08a14.18,14.18,0,0,0,.52,4.22,4,4,0,0,0,2,2.42,10,10,0,0,0,4.46.78A30.4,30.4,0,0,0,39.66,68l1.16,10.86a47.59,47.59,0,0,1-6.13,1.24A48.5,48.5,0,0,1,28.36,80.52Z" transform="translate(-3.03 -16.84)"/><path class="cls-1" d="M50.25,79.73V70H65.67v9.76ZM52.5,48.09V38.33H75v9.76Zm17-15.35a6.19,6.19,0,0,1-4.68-1.87A6.8,6.8,0,0,1,63.05,26a6.79,6.79,0,0,1,1.79-4.88,6.79,6.79,0,0,1,9.36,0A6.75,6.75,0,0,1,76,26a6.76,6.76,0,0,1-1.79,4.89A6.19,6.19,0,0,1,69.52,32.74Zm-4.6,47V40.67H75V79.73Zm9.35,0V70h12.5v9.76Z" transform="translate(-3.03 -16.84)"/><path class="cls-1" d="M95.79,47.43v-9.1h32v9.1Zm7.82,28-7.82-4.77,24.69-27.81,7.34,4.61Zm-7.82,4.33v-9.1h32.77v9.1Z" transform="translate(-3.03 -16.84)"/><path class="cls-1" d="M139.3,79.73l-2.62-41.4h9.84L148,69.89h.67l4.53-31.56h7.26l-3.33,10.19h-.53l-4,31.21Zm21.71,0-4-31.21h-.6l-3.25-10.19h7.26l4.52,31.56h.68L168,38.33h9.58l-3.74,41.4Z" transform="translate(-3.03 -16.84)"/><path class="cls-1" d="M205.57,80.52q-10.29,0-15.9-5.57t-5.62-16q0-10.16,4.77-15.78t13.46-5.62q8.49,0,13.13,5.19t4.64,15.12c0,1.87-.08,3.66-.23,5.35H190.71V55.87H210.1a9.17,9.17,0,0,0-2-6.41,7.38,7.38,0,0,0-5.71-2.23,7.25,7.25,0,0,0-6.16,3q-2.17,3-2.18,8.38,0,5.86,3.23,8.91t9.23,3a46.73,46.73,0,0,0,5.31-.3c1.74-.19,3.53-.46,5.35-.8l1,10a58.37,58.37,0,0,1-7,.9C209.05,80.45,207.19,80.52,205.57,80.52Z" transform="translate(-3.03 -16.84)"/><path d="M247,80.52a6.44,6.44,0,0,1-4.83-2.09,7.38,7.38,0,0,1,0-10.06,6.67,6.67,0,0,1,9.66,0,7.38,7.38,0,0,1,0,10.06A6.41,6.41,0,0,1,247,80.52Z" transform="translate(-3.03 -16.84)"/><path d="M286,80.52A13.43,13.43,0,0,1,274.54,75q-4.1-5.55-4.1-15.9t4.1-15.9a13.44,13.44,0,0,1,11.54-5.62q4.35,0,6.61,2.05a10.35,10.35,0,0,1,2.93,6.23h3.3L296.6,59.07c0-4-.65-6.94-1.93-8.79a6.62,6.62,0,0,0-5.82-2.77,6.47,6.47,0,0,0-5.72,3c-1.35,2-2,4.86-2,8.53s.66,6.67,2,8.59a6.54,6.54,0,0,0,5.78,2.89c2.89,0,4.91-.91,6-2.73s1.71-4.74,1.71-8.75l2.69,13.16h-3.52a9.45,9.45,0,0,1-3.1,6.22A10.12,10.12,0,0,1,286,80.52Zm12.05-.4-1.46-8.2V21.14h10.14V79.73Z" transform="translate(-3.03 -16.84)"/><path d="M336.44,80.52q-10.29,0-15.9-5.57t-5.62-16q0-10.16,4.77-15.78t13.46-5.62q8.49,0,13.13,5.19t4.64,15.12c0,1.87-.08,3.66-.23,5.35H321.58V55.87H341a9.22,9.22,0,0,0-2-6.41,7.37,7.37,0,0,0-5.71-2.23,7.22,7.22,0,0,0-6.15,3c-1.47,2-2.19,4.76-2.19,8.38q0,5.86,3.23,8.91t9.23,3a46.73,46.73,0,0,0,5.31-.3c1.74-.19,3.53-.46,5.35-.8l1,10a58.37,58.37,0,0,1-7,.9C339.92,80.45,338.06,80.52,336.44,80.52Z" transform="translate(-3.03 -16.84)"/><path d="M371.31,79.73l-13.58-41.4h10.33l9.42,32.11h.68l9.43-32.11h10.32l-13.58,41.4Z" transform="translate(-3.03 -16.84)"/><path class="cls-1" d="M407.75,87.16l29-70.32H447L418,87.16ZM447,72V61.49l24-8.79V51.38L436.19,37.59V27.08L482.77,46.8V57.27Z" transform="translate(-3.03 -16.84)"/></svg>